<?xml version="1.0" encoding="UTF-8" standalone="no"?>
<svg
   width="496"
   height="496"
   version="1"
   id="svg6"
   sodipodi:docname="binary-os--logosymbolic.svg"
   inkscape:version="1.1.2 (0a00cf5339, 2022-02-04)"
   xmlns:inkscape="http://www.inkscape.org/namespaces/inkscape"
   xmlns:sodipodi="http://sodipodi.sourceforge.net/DTD/sodipodi-0.dtd"
   xmlns="http://www.w3.org/2000/svg"
   xmlns:svg="http://www.w3.org/2000/svg"
   xmlns:rdf="http://www.w3.org/1999/02/22-rdf-syntax-ns#"
   xmlns:cc="http://creativecommons.org/ns#"
   xmlns:dc="http://purl.org/dc/elements/1.1/">
  <metadata
     id="metadata12">
    <rdf:RDF>
      <cc:Work
         rdf:about="">
        <dc:format>image/svg+xml</dc:format>
        <dc:type
           rdf:resource="http://purl.org/dc/dcmitype/StillImage" />
      </cc:Work>
    </rdf:RDF>
  </metadata>
  <defs
     id="defs10" />
  <sodipodi:namedview
     pagecolor="#ffffff"
     bordercolor="#666666"
     borderopacity="1"
     objecttolerance="10"
     gridtolerance="10"
     guidetolerance="10"
     inkscape:pageopacity="0"
     inkscape:pageshadow="2"
     inkscape:window-width="1920"
     inkscape:window-height="1004"
     id="namedview8"
     showgrid="false"
     inkscape:zoom="0.65186406"
     inkscape:cx="-66.731704"
     inkscape:cy="124.25904"
     inkscape:window-x="0"
     inkscape:window-y="0"
     inkscape:window-maximized="1"
     inkscape:current-layer="svg6"
     inkscape:pagecheckerboard="0" />
  <g
     aria-label="0"
     id="text10529"
     style="font-size:533.333px;line-height:1.25;font-family:Audiowide;-inkscape-font-specification:Audiowide;fill:none">
    <path
       d="m 465.8567,287.09409 q 0,22.91665 -5.98957,43.48956 -5.72917,20.31248 -16.40624,37.76039 -10.67708,17.44791 -25.26041,31.24998 -14.58332,13.80208 -32.03123,23.6979 -17.18749,9.63541 -36.71872,14.84374 -19.53124,5.20833 -39.84373,5.20833 H 187.47146 q -20.57291,0 -40.10414,-5.20833 -19.53124,-5.20833 -36.97915,-14.84374 Q 93.200682,413.3961 78.617358,399.59402 64.034034,385.79195 53.356957,368.34404 42.940296,350.89613 36.950717,330.58365 31.221554,310.01074 31.221554,287.09409 v -60.93746 q 0,-34.37498 12.760408,-63.0208 13.020826,-28.64581 34.635396,-49.21872 21.614572,-20.833319 49.739552,-32.291645 28.3854,-11.718743 59.11455,-11.718743 H 309.6068 q 20.31249,0 39.84373,5.20833 19.53123,5.20833 36.71872,15.104158 17.44791,9.63541 32.03123,23.43749 14.58333,13.80207 25.26041,31.24998 10.67707,17.4479 16.40624,38.02081 5.98957,20.31248 5.98957,43.22914 z m -68.22912,-60.93746 q 0,-20.05207 -7.29166,-36.45831 -7.29166,-16.40624 -19.53124,-28.12499 -11.97916,-11.71874 -27.86457,-17.96874 -15.8854,-6.24999 -33.33331,-5.98958 H 187.47146 q -16.92707,-0.26041 -33.0729,5.98958 -15.88541,5.98958 -28.3854,17.70833 -12.23957,11.45832 -19.79165,28.12498 -7.291664,16.40624 -7.291664,36.71873 v 60.93746 q 0,20.31249 7.291664,36.71873 7.29166,16.40624 19.53124,28.12498 12.23957,11.45833 28.12498,17.70832 16.14582,6.25 33.59373,5.98958 H 309.6068 q 20.05207,0 36.19789,-6.51041 16.40624,-6.77083 27.86457,-18.48957 11.45833,-11.71875 17.70832,-27.86457 6.25,-16.40624 6.25,-35.67706 z m -29.42707,-49.47914 q 3.90625,5.72916 5.20833,12.49999 1.30209,6.51042 0,13.02083 -1.30208,6.24999 -5.20833,11.97916 -3.64583,5.46874 -9.63541,9.37499 L 175.75272,345.6878 q -4.42709,3.38542 -9.11458,4.6875 -4.6875,1.30208 -9.63541,1.30208 -8.33333,0 -15.88541,-3.90624 -7.55208,-3.90625 -12.23958,-11.19791 -3.90624,-5.72917 -5.20833,-12.23958 -1.30208,-6.77083 -0.26041,-13.02083 1.30208,-6.51041 4.94791,-11.97915 3.64583,-5.72917 9.63541,-9.63542 L 321.32554,167.56291 q 5.72917,-3.90625 12.23958,-5.20833 6.77083,-1.30208 13.02082,0 6.51042,1.30208 11.97916,4.94792 5.72917,3.64583 9.63541,9.37499 z"
       id="path15271"
       style="fill:none" />
  </g>
</svg>
